<?xml version="1.0" standalone="no"?>
<!DOCTYPE svg PUBLIC "-//W3C//DTD SVG 20010904//EN"
 "http://www.w3.org/TR/2001/REC-SVG-20010904/DTD/svg10.dtd">
<svg version="1.0" xmlns="http://www.w3.org/2000/svg"
 width="500.000000pt" height="500.000000pt" viewBox="0 0 500.000000 500.000000"
 preserveAspectRatio="xMidYMid meet">
<metadata>
Created by potrace 1.14, written by Peter Selinger 2001-2017
</metadata>
<g transform="translate(0.000000,500.000000) scale(0.100000,-0.100000)"
fill="#000000" stroke="none">
<path d="M2190 4850 c-787 -105 -1464 -592 -1815 -1305 -83 -168 -132 -303
-176 -480 -54 -220 -64 -319 -63 -595 1 -219 14 -330 60 -522 l26 -108 -29
-33 c-15 -19 -63 -73 -106 -122 -45 -51 -77 -96 -77 -109 0 -37 28 -66 63 -66
28 0 42 12 104 83 40 45 87 98 105 117 17 19 55 60 82 90 389 424 438 470 559
518 36 14 101 17 459 22 l417 5 28 33 c50 59 46 59 838 57 806 -2 772 1 931
-75 76 -37 144 -94 144 -122 0 -18 -72 -81 -120 -105 -72 -36 -142 -61 -206
-73 -40 -7 -284 -11 -760 -10 -656 0 -703 -1 -722 -17 -32 -27 -38 -67 -13
-92 16 -16 34 -21 74 -22 28 0 354 0 722 0 635 0 674 1 747 20 168 43 276 99
354 183 l42 44 138 -2 c271 -3 479 -25 637 -65 144 -36 230 -91 230 -146 0
-145 -350 -255 -983 -308 -237 -20 -552 -30 -970 -29 -357 1 -801 11 -895 20
-22 2 -155 6 -295 9 -286 7 -320 2 -415 -60 -50 -32 -133 -114 -190 -189 -17
-21 -34 -44 -40 -50 -5 -6 -46 -56 -89 -111 -44 -55 -128 -159 -187 -230 -142
-174 -162 -203 -154 -235 8 -31 31 -50 63 -50 17 0 39 16 70 50 l45 50 65 -61
c310 -291 729 -506 1146 -589 225 -45 573 -54 805 -20 569 83 1077 361 1455
795 154 177 289 390 374 590 24 55 47 107 51 115 4 8 38 30 74 49 83 41 151
101 179 155 26 51 28 129 5 178 -17 36 -100 118 -120 118 -5 0 -7 17 -3 42 22
156 25 373 7 543 -62 564 -294 1051 -691 1445 -304 303 -676 514 -1089 620
-121 31 -156 37 -336 59 -120 15 -408 10 -555 -9z m-449 -1431 c95 -31 203
-90 304 -167 97 -74 241 -232 232 -256 -3 -8 -40 -31 -82 -52 -65 -32 -85 -37
-148 -38 -67 0 -76 2 -125 35 -89 59 -166 182 -224 359 -33 97 -42 140 -30
140 5 0 38 -9 73 -21z m1769 -16 c0 -1 -18 -43 -39 -93 -78 -181 -174 -311
-271 -368 -37 -22 -57 -27 -115 -27 -60 0 -78 5 -130 33 -33 18 -75 46 -93 61
l-33 28 58 56 c117 112 252 201 388 253 93 36 235 71 235 57z"/>
</g>
</svg>
